<svg id="visual" viewBox="0 0 900 600" width="900" height="600" xmlns="http://www.w3.org/2000/svg" xmlns:xlink="http://www.w3.org/1999/xlink" version="1.1"><rect x="0" y="0" width="900" height="600" fill="#001220"></rect><path d="M0 406L21.5 408.7C43 411.3 86 416.7 128.8 421.7C171.7 426.7 214.3 431.3 257.2 422.2C300 413 343 390 385.8 379.8C428.7 369.7 471.3 372.3 514.2 376.5C557 380.7 600 386.3 642.8 387.7C685.7 389 728.3 386 771.2 379.3C814 372.7 857 362.3 878.5 357.2L900 352L900 601L878.5 601C857 601 814 601 771.2 601C728.3 601 685.7 601 642.8 601C600 601 557 601 514.2 601C471.3 601 428.7 601 385.8 601C343 601 300 601 257.2 601C214.3 601 171.7 601 128.8 601C86 601 43 601 21.5 601L0 601Z" fill="#fa7268"></path><path d="M0 426L21.5 424.7C43 423.3 86 420.7 128.8 425C171.7 429.3 214.3 440.7 257.2 441.8C300 443 343 434 385.8 436.8C428.7 439.7 471.3 454.3 514.2 450.2C557 446 600 423 642.8 412C685.7 401 728.3 402 771.2 403.3C814 404.7 857 406.3 878.5 407.2L900 408L900 601L878.5 601C857 601 814 601 771.2 601C728.3 601 685.7 601 642.8 601C600 601 557 601 514.2 601C471.3 601 428.7 601 385.8 601C343 601 300 601 257.2 601C214.3 601 171.7 601 128.8 601C86 601 43 601 21.5 601L0 601Z" fill="#ef5f67"></path><path d="M0 491L21.5 493.2C43 495.3 86 499.7 128.8 498.5C171.7 497.3 214.3 490.7 257.2 480.2C300 469.7 343 455.3 385.8 457.8C428.7 460.3 471.3 479.7 514.2 479C557 478.3 600 457.7 642.8 458C685.7 458.3 728.3 479.7 771.2 488.2C814 496.7 857 492.3 878.5 490.2L900 488L900 601L878.5 601C857 601 814 601 771.2 601C728.3 601 685.7 601 642.8 601C600 601 557 601 514.2 601C471.3 601 428.7 601 385.8 601C343 601 300 601 257.2 601C214.3 601 171.7 601 128.8 601C86 601 43 601 21.5 601L0 601Z" fill="#e34c67"></path><path d="M0 522L21.5 517.8C43 513.7 86 505.3 128.8 501.5C171.7 497.7 214.3 498.3 257.2 502.7C300 507 343 515 385.8 514.7C428.7 514.3 471.3 505.7 514.2 501.5C557 497.3 600 497.7 642.8 500.7C685.7 503.7 728.3 509.3 771.2 513.8C814 518.3 857 521.7 878.5 523.3L900 525L900 601L878.5 601C857 601 814 601 771.2 601C728.3 601 685.7 601 642.8 601C600 601 557 601 514.2 601C471.3 601 428.7 601 385.8 601C343 601 300 601 257.2 601C214.3 601 171.7 601 128.8 601C86 601 43 601 21.5 601L0 601Z" fill="#d53867"></path><path d="M0 530L21.5 530C43 530 86 530 128.8 532.7C171.7 535.3 214.3 540.7 257.2 541.2C300 541.7 343 537.3 385.8 535.5C428.7 533.7 471.3 534.3 514.2 540.3C557 546.3 600 557.7 642.8 556.3C685.7 555 728.3 541 771.2 537.2C814 533.3 857 539.7 878.5 542.8L900 546L900 601L878.5 601C857 601 814 601 771.2 601C728.3 601 685.7 601 642.8 601C600 601 557 601 514.2 601C471.3 601 428.7 601 385.8 601C343 601 300 601 257.2 601C214.3 601 171.7 601 128.8 601C86 601 43 601 21.5 601L0 601Z" fill="#c62368"></path></svg>